<?xml version="1.0" encoding="utf-8"?>
<!-- Generator: Adobe Illustrator 27.5.0, SVG Export Plug-In . SVG Version: 6.00 Build 0)  -->
<svg version="1.1" xmlns="http://www.w3.org/2000/svg" xmlns:xlink="http://www.w3.org/1999/xlink" x="0px" y="0px"
	 viewBox="0 0 750 500" style="enable-background:new 0 0 750 500;" xml:space="preserve">
<g id="BACKGROUND">
	<rect style="fill:#FFFFFF;" width="750" height="500"/>
</g>
<g id="OBJECTS">
	<g>
		<g>
			<rect x="30.058" y="28.613" style="fill:#DAE9F7;" width="1" height="421.27"/>
			<rect x="76.059" y="28.613" style="fill:#DAE9F7;" width="1" height="421.27"/>
			<rect x="122.06" y="28.613" style="fill:#DAE9F7;" width="1" height="421.27"/>
			<rect x="168.061" y="28.613" style="fill:#DAE9F7;" width="1" height="421.27"/>
			<rect x="214.061" y="28.613" style="fill:#DAE9F7;" width="1" height="421.27"/>
			<rect x="260.062" y="28.613" style="fill:#DAE9F7;" width="1" height="421.27"/>
			<rect x="306.063" y="28.613" style="fill:#DAE9F7;" width="1" height="421.27"/>
			<rect x="352.064" y="28.613" style="fill:#DAE9F7;" width="1" height="421.27"/>
			<rect x="398.065" y="28.613" style="fill:#DAE9F7;" width="1" height="421.27"/>
			<rect x="444.066" y="28.613" style="fill:#DAE9F7;" width="1" height="421.27"/>
			<rect x="490.067" y="28.613" style="fill:#DAE9F7;" width="1" height="421.27"/>
			<rect x="536.068" y="28.613" style="fill:#DAE9F7;" width="1" height="421.27"/>
			<rect x="582.069" y="28.613" style="fill:#DAE9F7;" width="1" height="421.27"/>
			<rect x="628.07" y="28.613" style="fill:#DAE9F7;" width="1" height="421.27"/>
			<rect x="674.071" y="28.613" style="fill:#DAE9F7;" width="1" height="421.27"/>
			<rect x="720.071" y="28.613" style="fill:#DAE9F7;" width="1" height="421.27"/>
			<g>
				<rect x="19.926" y="35.376" style="fill:#DAE9F7;" width="711.277" height="1"/>
				<rect x="19.926" y="81.377" style="fill:#DAE9F7;" width="711.277" height="1"/>
				<rect x="19.926" y="127.378" style="fill:#DAE9F7;" width="711.277" height="1"/>
				<rect x="19.926" y="173.379" style="fill:#DAE9F7;" width="711.277" height="1"/>
				<rect x="19.926" y="219.379" style="fill:#DAE9F7;" width="711.277" height="1"/>
				<rect x="19.926" y="265.38" style="fill:#DAE9F7;" width="711.277" height="1"/>
				<rect x="19.926" y="311.381" style="fill:#DAE9F7;" width="711.277" height="1"/>
				<rect x="19.926" y="357.382" style="fill:#DAE9F7;" width="711.277" height="1"/>
				<rect x="19.926" y="403.383" style="fill:#DAE9F7;" width="711.277" height="1"/>
			</g>
		</g>
		<g>
			<g>
				<path style="fill:#162E4C;" d="M616.958,428.74c0,0-9.308,7.358-15.471,8.96c-6.164,1.602-15.067,3.297-14.969,12.813h56.586
					c-0.379-8.902-2.038-16.645-5.233-20.416c-3.559,0.401-6.175,0.843-8.715,0.463C626.581,429.56,620.31,426.118,616.958,428.74z"
					/>
				<path style="fill:#162E4C;" d="M682.009,429.756c0,0,2.215,7.158,7.375,8.351c6.164,1.551,12.654,3.193,12.556,12.405h-46.934
					c0.38-8.619,1.68-16.46,4.874-20.11c3.559,0.389,6.533,1.16,9.073,0.792C671.529,430.226,678.657,427.218,682.009,429.756z"/>
				<path style="fill:#2F4A7F;" d="M631.552,153.846c10.602-13.415,0.985-25.88-9.68-26.063
					c-12.827,0.133-64.378,27.557-67.705,29.964c-22.778,13.001-10.035,31.816,4.129,29.611
					C567.799,187.004,618.548,170.301,631.552,153.846z"/>
				<path style="fill:#EFAB8B;" d="M658.183,133.984c-8.172,5.266-15.792,6.637-22.278,0V97.656h22.278V133.984z"/>
				<path style="fill:#7DB6F9;" d="M681.411,230.445l-65.122-1.506c-19.002,79.519-3.153,201.279-2.985,201.321
					c5.659,1.417,13.298,3.296,26.798,1.88c1.782-34.087,9.186-159.681,9.186-159.681l8.545,159.067
					c5.267,1.889,19.723,2.133,25.305,0.244C698.163,247.7,681.411,230.445,681.411,230.445z"/>
				<path style="fill:#FFFFFF;" d="M613.218,239.159l-0.347,1.707c10.377,4.203,21.771,6.416,34.329,6.353l1.188-5.047l1.384,5.047
					c13.299-0.277,25.511-1.763,36.016-5.149l-0.565-2.911H613.218z"/>
				<polygon style="fill:#3E7EDB;" points="648.788,272.485 648.242,261.911 638.366,259.367 638.616,258.398 649.203,261.125 
					649.786,272.433 				"/>
				<path style="fill:#2F4A7F;" d="M607.817,133.404c6.931-6.19,26.091-7.39,26.091-7.39s1.673,4.546,11.284,4.546
					c9.611,0,14.969-4.56,14.969-4.56s21.844,0.813,30.88,8.306c9.036,7.493,1.297,102.004-4.622,105.005
					c-7.81,4.194-68.556,3.222-73.515-0.335C608.253,236.23,599.5,141.014,607.817,133.404z"/>
				<path style="fill:#162E4C;" d="M603.876,171.963c-0.065-7.434,0.318-14.691,1.142-21.566l0.992,0.119
					c-0.817,6.834-1.199,14.047-1.134,21.439L603.876,171.963z"/>
				<path style="fill:#FFFFFF;" d="M631.842,126.19l4.063-5.665c2.164,4.545,3.638,7.296,8.158,10.034l-5.012,6.806
					C635.722,134.69,633.346,130.934,631.842,126.19z"/>
				<path style="fill:#FFFFFF;" d="M662.557,126.19l-4.374-7.029c-1.835,5.694-5.01,8.516-10.903,11.399l4.442,6.806
					C656.478,134.443,660.242,130.825,662.557,126.19z"/>
			</g>
			<g>
				<path style="fill:#2F4A7F;" d="M691.042,134.305c-12.655-5.649-18.274,0.372-20.514,10.001
					c-2.352,11.617,14.108,61.062,15.785,64.319c8.646,17.211,31.736,6.184,31.464-8.54
					C719.274,191.452,707.242,145.572,691.042,134.305z"/>
				<path style="fill:#162E4C;" d="M686.521,194.585c-8.073-10.247-14.505-27.43-14.569-27.602l0.938-0.349
					c0.063,0.171,6.441,17.209,14.417,27.332L686.521,194.585z"/>
			</g>
			<g>
				<path style="fill:#162E4C;" d="M670.377,259.609l-29.328,29.696c-1.474,1.493-3.88,1.508-5.372,0.033l-40.419-39.917
					c-1.493-1.474-1.508-3.88-0.034-5.373l29.328-29.696c1.474-1.493,3.88-1.508,5.372-0.033l40.419,39.918
					C671.836,255.711,671.851,258.116,670.377,259.609z"/>
				
					<rect x="611.498" y="224.018" transform="matrix(0.7027 -0.7115 0.7115 0.7027 8.9661 525.1137)" style="fill:#FFFFFF;" width="42.606" height="55.621"/>
				<path style="fill:#7DB6F9;" d="M616.381,220.848l-1.261,1.276c-1.533-1.245-3.79-1.146-5.207,0.288l-6.812,6.898
					c-1.417,1.434-1.487,3.692-0.223,5.21l-1.261,1.276c-0.7,0.709-0.693,1.851,0.016,2.55l2.959,2.922
					c0.709,0.7,1.851,0.693,2.55-0.016l14.763-14.949c0.7-0.709,0.693-1.851-0.016-2.55l-2.959-2.922
					C618.223,220.132,617.081,220.139,616.381,220.848z"/>
				<g>
					
						<rect x="631.071" y="267.8" transform="matrix(0.7027 -0.7115 0.7115 0.7027 -7.5837 532.5255)" style="fill:#E8615B;" width="4.667" height="15.075"/>
					
						<rect x="638.334" y="269.577" transform="matrix(0.7027 -0.7115 0.7115 0.7027 -4.0033 537.1111)" style="fill:#E8615B;" width="4.667" height="7.537"/>
					
						<rect x="639.152" y="255.928" transform="matrix(0.7027 -0.7115 0.7115 0.7027 2.1863 535.2076)" style="fill:#E8615B;" width="4.667" height="18.12"/>
					
						<rect x="647.078" y="259.291" transform="matrix(0.7027 -0.7115 0.7115 0.7027 5.4942 540.45)" style="fill:#E8615B;" width="4.667" height="8.719"/>
					
						<rect x="644.578" y="237.704" transform="matrix(0.7027 -0.7115 0.7115 0.7027 13.0286 535.2124)" style="fill:#E8615B;" width="4.667" height="28.626"/>
					
						<rect x="653.982" y="244.601" transform="matrix(0.7027 -0.7115 0.7115 0.7027 15.7366 541.9365)" style="fill:#E8615B;" width="4.667" height="15.075"/>
				</g>
				
					<rect x="600.289" y="227.822" transform="matrix(0.7032 -0.711 0.711 0.7032 18.4173 500.7632)" style="fill:#162E4C;" width="17.422" height="1"/>
				<path style="fill:#EFAC37;" d="M618.347,241.089l0.776,9.475l6.682-6.766C623.753,241.772,621.013,240.872,618.347,241.089z"/>
				<path style="fill:#7DB6F9;" d="M618.347,241.089c-2.188,0.178-4.326,1.108-5.989,2.793c-3.69,3.736-3.653,9.757,0.084,13.447
					l6.682-6.766L618.347,241.089z"/>
				<path style="fill:#E8615B;" d="M625.889,257.246c3.69-3.737,3.653-9.757-0.084-13.447l-6.682,6.766l-6.682,6.766
					C616.178,261.02,622.199,260.982,625.889,257.246z"/>
				
					<rect x="621.571" y="233.858" transform="matrix(0.7027 -0.7115 0.7115 0.7027 17.9314 512.9853)" style="fill:#E8615B;" width="2.36" height="2.36"/>
				
					<rect x="624.932" y="237.177" transform="matrix(0.7027 -0.7115 0.7115 0.7027 16.569 516.3636)" style="fill:#7DB6F9;" width="2.36" height="2.36"/>
				
					<rect x="628.293" y="240.496" transform="matrix(0.7027 -0.7115 0.7115 0.7027 15.1982 519.7235)" style="fill:#EFAC37;" width="2.36" height="2.36"/>
				
					<rect x="623.483" y="228.362" transform="matrix(0.7032 -0.711 0.711 0.7032 23.9253 515.0377)" style="fill:#162E4C;" width="10.735" height="1"/>
				
					<rect x="626.844" y="231.682" transform="matrix(0.7031 -0.711 0.711 0.7031 22.583 518.4556)" style="fill:#162E4C;" width="10.735" height="1"/>
				
					<rect x="630.205" y="235.001" transform="matrix(0.7032 -0.7109 0.7109 0.7032 21.1799 521.7435)" style="fill:#162E4C;" width="10.735" height="1"/>
			</g>
			<g>
				<g>
					<path style="fill:#EFAB8B;" d="M667.67,231.967c3.348,6.479-0.172,9.11-4.833,12.704c-4.661,3.594-17.237,8.501-17.237,8.501
						c-3.308,1.347-4.505-1.301-3.614-1.867c0.456-0.236-1.796,0.768-2.265,0.96c-4.2,1.546-4.677-1.968-3.21-3.002
						c-3.027,1.74-5.151-1.452-3.288-2.723c-2.303,1.004-4.123-1.999-1.036-4.067c1.613-1.293,16.505-9.651,16.505-9.651
						l-3.746-3.611c6.544-2.065,11.026-1.77,12.813-1.799C661.082,227.359,665.655,228.068,667.67,231.967z"/>
					
						<rect x="640.982" y="247.974" transform="matrix(0.8534 -0.5213 0.5213 0.8534 -34.7017 373.577)" style="fill:#D88260;" width="11.46" height="1"/>
					
						<rect x="635.636" y="245.206" transform="matrix(0.8693 -0.4942 0.4942 0.8693 -37.427 349.8507)" style="fill:#D88260;" width="14.541" height="1"/>
					
						<rect x="632.257" y="241.907" transform="matrix(0.8706 -0.4919 0.4919 0.8706 -36.4074 346.3717)" style="fill:#D88260;" width="16.19" height="1.001"/>
				</g>
				<path style="fill:#FFFFFF;" d="M659.454,222.56l-4.847,3.624c5.208,4.832,9.855,10.075,12.988,16.753l5.799-3.594
					C673.196,228.523,669.417,221.732,659.454,222.56z"/>
				<g>
					<g>
						<path style="fill:#2F4A7F;" d="M670.95,241.972c-5.492-13.45-14.105-18.614-14.105-18.614l35.698-33.573
							c19.739-12.18,34.199,9.693,17.54,24.767c-9.461,8.969-23.325,18.996-37.244,26.501
							C670.417,242.359,670.95,241.972,670.95,241.972z"/>
					</g>
					<path style="fill:#162E4C;" d="M664.951,216.214l-0.695-0.719l22.42-21.659c3.947-2.142,8.424-2.876,13.296-2.188l-0.141,0.99
						c-4.697-0.665-8.828,0.003-12.619,2.044L664.951,216.214z"/>
					<path style="fill:#162E4C;" d="M671.173,242.419l-0.447-0.895c11.275-5.639,18.141-10.953,18.208-11.006l0.615,0.789
						C689.48,231.361,682.544,236.732,671.173,242.419z"/>
				</g>
			</g>
			<g>
				
					<rect x="621.9" y="93.751" transform="matrix(0.9998 -0.0175 0.0175 0.9998 -1.5533 10.9707)" style="fill:#162E4C;" width="8.531" height="1"/>
				<path style="fill:#EFAB8B;" d="M630.245,79.479c0,0-6.5,22.893-5.794,29.111c0.706,6.218,2.826,10.457,14.697,9.468
					c11.871-0.989,17.806-8.194,21.763-19.218C664.867,87.817,640.703,61.674,630.245,79.479z"/>
				<path style="fill:#05060B;" d="M635.909,118.702l-0.023-1c0.094-0.002,9.402-0.252,13.245-3.69l0.666,0.745
					C645.68,118.441,636.306,118.693,635.909,118.702z"/>
				<path style="fill:#162E4C;" d="M632.098,68.723c0.794-0.904,1.699-1.728,2.767-2.227c1.136-0.53,2.398-0.667,3.638-0.757
					c3.988-1.461,8.52-2.367,12.698-1.16c4.278,1.236,7.292,5.118,10.456,8.047c2.609,2.415,4.332,5.201,5.573,8.554
					c0.726,1.96,1.158,4.083,0.997,6.179c-0.275,3.581-0.998,6.492-0.526,10.148c-0.925,10.796-9.63,14.188-9.63,14.188
					s-3.157-1.372-4.435-2.969c-0.612-0.764-1.176-1.597-1.465-2.549c-0.754-2.492,0.501-5.104,1.581-7.458
					c1.08-2.354,1.993-5.254,0.67-7.465c-1.171-1.959-4.04-2.467-5.754-1.02c-1.488,1.257-1.903,3.44-2.067,5.444
					c-1.195-0.569-2.048-1.867-2.134-3.247c-0.096-1.533,0.67-2.956,1.29-4.346c0.621-1.39,1.112-3.037,0.488-4.425
					c-0.254-0.565-0.672-1.028-1.108-1.452c-14.786-5.715-15.865,0.875-15.865,0.875s-0.215,0.752-0.529,1.947
					c-1.787-0.721-0.802-6.873-0.493-8.383C628.852,73.712,630.161,70.93,632.098,68.723z"/>
				<g>
					<g>
						<path style="fill:#162E4C;" d="M623.808,102.108c-0.09,0-0.179-0.006-0.269-0.02c-0.538-0.081-1.02-0.405-1.391-0.939
							c-1.021-1.466-1.234-4.535-0.547-7.819c0.974-4.648,3.237-7.916,5.308-7.615c0.538,0.081,1.019,0.405,1.39,0.939
							c1.021,1.465,1.234,4.534,0.547,7.818C627.916,98.919,625.788,102.108,623.808,102.108z M626.637,86.695
							c-1.267,0-3.193,2.717-4.057,6.84c-0.624,2.981-0.468,5.811,0.389,7.043c0.214,0.306,0.455,0.482,0.719,0.521
							c1.227,0.194,3.287-2.571,4.18-6.832l0,0c0.624-2.981,0.468-5.811-0.389-7.042c-0.213-0.306-0.455-0.481-0.718-0.521
							C626.721,86.698,626.679,86.695,626.637,86.695z"/>
						<path style="fill:#162E4C;" d="M633.523,103.561c-0.09,0-0.179-0.007-0.268-0.02c-0.538-0.081-1.02-0.405-1.391-0.939
							c-1.02-1.465-1.234-4.534-0.547-7.818c0.973-4.648,3.24-7.919,5.308-7.616c0.538,0.081,1.019,0.405,1.391,0.938
							c1.02,1.465,1.234,4.534,0.547,7.819l0,0C637.631,100.372,635.503,103.561,633.523,103.561z M636.352,88.148
							c-1.267,0-3.193,2.717-4.057,6.841c-0.624,2.98-0.468,5.811,0.389,7.042c0.214,0.306,0.455,0.482,0.719,0.521
							c1.246,0.188,3.288-2.572,4.181-6.831l0,0c0.624-2.982,0.467-5.812-0.39-7.043c-0.213-0.306-0.454-0.481-0.718-0.52
							C636.436,88.151,636.394,88.148,636.352,88.148z"/>
						<path style="fill:#162E4C;" d="M632.69,91.707c-1.588-0.969-2.785-1.145-3.658-0.538l-0.57-0.821
							c1.214-0.844,2.813-0.676,4.75,0.505L632.69,91.707z"/>
					</g>
					
						<rect x="638.072" y="95.25" transform="matrix(0.9998 -0.0176 0.0176 0.9998 -1.5855 11.3182)" style="fill:#162E4C;" width="8.531" height="1"/>
				</g>
			</g>
		</g>
		<g>
			<polygon style="fill:#2F4A7F;" points="418.527,450.513 299.367,450.513 310.69,259.67 408.075,259.67 			"/>
			<polygon style="fill:#2F4A7F;" points="418.527,450.513 299.367,450.513 310.69,259.67 408.075,259.67 			"/>
			<path style="fill:#476B9E;" d="M578.791,393.846H139.103c-5.458,0-9.882-4.424-9.882-9.882v-261.07
				c0-5.458,4.424-9.882,9.882-9.882h439.688c5.458,0,9.882,4.424,9.882,9.882v261.07
				C588.674,389.422,584.249,393.846,578.791,393.846z"/>
			<rect x="150.841" y="134.79" style="fill:#FFFFFF;" width="416.212" height="237.278"/>
			<path style="fill:#476B9E;" d="M487.346,450.513H230.549l0,0c0-6.828,5.535-12.363,12.363-12.363h232.071
				C481.811,438.15,487.346,443.685,487.346,450.513L487.346,450.513z"/>
			<g>
				<path style="fill:#162E4C;" d="M365.175,125.577h-17.439c-1.118,0-2.028-0.91-2.028-2.028c0-1.118,0.91-2.028,2.028-2.028
					h17.439c1.118,0,2.027,0.91,2.027,2.028C367.203,124.667,366.293,125.577,365.175,125.577z M347.737,122.521
					c-0.567,0-1.028,0.461-1.028,1.028s0.461,1.028,1.028,1.028h17.439c0.566,0,1.027-0.461,1.027-1.028s-0.461-1.028-1.027-1.028
					H347.737z"/>
				<path style="fill:#162E4C;" d="M370.087,125.577c-1.157,0-2.099-0.91-2.099-2.028c0-1.118,0.941-2.028,2.099-2.028
					c1.156,0,2.098,0.91,2.098,2.028C372.185,124.667,371.244,125.577,370.087,125.577z M370.087,122.521
					c-0.605,0-1.099,0.461-1.099,1.028s0.493,1.028,1.099,1.028c0.605,0,1.098-0.461,1.098-1.028S370.693,122.521,370.087,122.521z"
					/>
			</g>
			<rect x="302.729" y="393.346" style="fill:#162E4C;" width="112.694" height="1"/>
			<rect x="300.303" y="437.65" style="fill:#162E4C;" width="117.547" height="1"/>
		</g>
		<g>
			<rect x="185.806" y="134.79" style="fill:#DAE9F7;" width="1" height="237.278"/>
			<rect x="167.634" y="134.79" style="fill:#DAE9F7;" width="1" height="237.278"/>
			<rect x="203.979" y="134.79" style="fill:#DAE9F7;" width="1" height="237.278"/>
			<rect x="222.152" y="134.79" style="fill:#DAE9F7;" width="1" height="237.278"/>
			<rect x="240.325" y="134.79" style="fill:#DAE9F7;" width="1" height="237.278"/>
			<rect x="276.671" y="134.79" style="fill:#DAE9F7;" width="1" height="237.278"/>
			<rect x="258.498" y="134.79" style="fill:#DAE9F7;" width="1" height="237.278"/>
			<rect x="294.842" y="134.79" style="fill:#DAE9F7;" width="1" height="237.278"/>
			<rect x="313.015" y="134.79" style="fill:#DAE9F7;" width="1" height="237.278"/>
			<rect x="331.188" y="134.79" style="fill:#DAE9F7;" width="1" height="237.278"/>
			<rect x="367.534" y="134.79" style="fill:#DAE9F7;" width="1" height="237.278"/>
			<rect x="349.361" y="134.79" style="fill:#DAE9F7;" width="1" height="237.278"/>
			<rect x="385.707" y="134.79" style="fill:#DAE9F7;" width="1" height="237.278"/>
			<rect x="403.879" y="134.79" style="fill:#DAE9F7;" width="1" height="237.278"/>
			<rect x="422.051" y="134.79" style="fill:#DAE9F7;" width="1" height="237.278"/>
			<rect x="458.397" y="134.79" style="fill:#DAE9F7;" width="1" height="237.278"/>
			<rect x="440.224" y="134.79" style="fill:#DAE9F7;" width="1" height="237.278"/>
			<rect x="476.57" y="134.79" style="fill:#DAE9F7;" width="1" height="237.278"/>
			<rect x="494.743" y="134.79" style="fill:#DAE9F7;" width="1" height="237.278"/>
			<rect x="512.915" y="134.79" style="fill:#DAE9F7;" width="1" height="237.278"/>
			<rect x="531.088" y="134.79" style="fill:#DAE9F7;" width="1" height="237.278"/>
			<rect x="549.26" y="134.79" style="fill:#DAE9F7;" width="1" height="237.278"/>
		</g>
		<g>
			<g>
				<rect x="294.842" y="180.493" style="fill:#162E4C;" width="1" height="44.049"/>
				<path style="fill:#7DB6F9;" d="M302.384,216.457c-0.913,1.095-13.385,1.217-14.237,0c-0.852-1.217-0.547-26.876,0-27.926
					c0.548-1.049,13.324-1.141,14.237,0C303.297,189.672,303.297,215.362,302.384,216.457z"/>
			</g>
			<g>
				<rect x="367.534" y="157.249" style="fill:#162E4C;" width="1" height="79.552"/>
				<path style="fill:#7DB6F9;" d="M375.075,213.887c-0.913,1.095-13.385,1.217-14.237,0c-0.852-1.217-0.548-26.877,0-27.926
					c0.548-1.049,13.324-1.141,14.237,0C375.988,187.102,375.988,212.792,375.075,213.887z"/>
			</g>
			<g>
				<rect x="240.459" y="152.602" style="fill:#162E4C;" width="1" height="79.552"/>
				<path style="fill:#7DB6F9;" d="M248,209.24c-0.913,1.095-13.385,1.217-14.237,0c-0.852-1.217-0.548-26.877,0-27.926
					c0.548-1.049,13.324-1.141,14.237,0C248.912,182.455,248.912,208.145,248,209.24z"/>
			</g>
			<g>
				<rect x="403.879" y="133.071" style="fill:#162E4C;" width="1" height="79.552"/>
				<path style="fill:#7DB6F9;" d="M411.421,189.71c-0.913,1.095-13.385,1.217-14.237,0c-0.852-1.217-0.548-26.877,0-27.926
					c0.548-1.049,13.324-1.141,14.237,0C412.333,162.924,412.333,188.615,411.421,189.71z"/>
			</g>
			<g>
				<rect x="494.699" y="86.573" style="fill:#162E4C;" width="1" height="51.003"/>
				<path style="fill:#7DB6F9;" d="M502.24,122.883c-0.913,1.095-13.385,1.217-14.237,0c-0.852-1.217-0.548-19.97,0-21.02
					c0.548-1.049,13.324-1.141,14.237,0C503.153,103.004,503.153,121.788,502.24,122.883z"/>
			</g>
			<g>
				<rect x="476.57" y="97.65" style="fill:#162E4C;" width="1" height="51.003"/>
				<path style="fill:#7DB6F9;" d="M484.111,133.96c-0.913,1.095-13.385,1.217-14.237,0c-0.852-1.217-0.548-19.971,0-21.02
					c0.547-1.049,13.324-1.141,14.237,0C485.024,114.081,485.024,132.865,484.111,133.96z"/>
			</g>
			<g>
				<rect x="531.088" y="64.032" style="fill:#162E4C;" width="1" height="51.003"/>
				<path style="fill:#7DB6F9;" d="M538.629,100.343c-0.913,1.095-13.385,1.217-14.237,0c-0.852-1.217-0.548-19.97,0-21.02
					c0.548-1.049,13.324-1.141,14.237,0S539.542,99.248,538.629,100.343z"/>
			</g>
			<g>
				<rect x="222.152" y="143.21" style="fill:#162E4C;" width="1" height="59.274"/>
				<path style="fill:#7DB6F9;" d="M229.694,192.353c-0.913,1.095-13.385,1.217-14.237,0c-0.852-1.217-0.548-26.876,0-27.926
					c0.548-1.049,13.324-1.141,14.237,0C230.606,165.568,230.606,191.258,229.694,192.353z"/>
			</g>
			<g>
				<rect x="258.498" y="169.483" style="fill:#162E4C;" width="1" height="41.531"/>
				<path style="fill:#7DB6F9;" d="M266.039,188.374c-0.913,1.095-13.385,1.217-14.237,0c-0.852-1.217-0.548-10.911,0-11.961
					c0.548-1.049,13.324-1.141,14.237,0C266.952,177.554,266.952,187.279,266.039,188.374z"/>
			</g>
			<g>
				<rect x="313.015" y="169.483" style="fill:#162E4C;" width="1" height="41.531"/>
				<path style="fill:#7DB6F9;" d="M320.557,188.374c-0.913,1.095-13.385,1.217-14.237,0c-0.852-1.217-0.547-10.911,0-11.961
					c0.548-1.049,13.324-1.141,14.237,0C321.47,177.554,321.47,187.279,320.557,188.374z"/>
			</g>
			<g>
				<rect x="203.979" y="150.847" style="fill:#162E4C;" width="1" height="41.531"/>
				<path style="fill:#7DB6F9;" d="M211.521,169.738c-0.913,1.095-13.385,1.217-14.237,0c-0.852-1.217-0.548-10.911,0-11.961
					c0.548-1.05,13.324-1.141,14.237,0C212.434,158.917,212.434,168.642,211.521,169.738z"/>
			</g>
			<g>
				<rect x="385.707" y="171.613" style="fill:#162E4C;" width="1" height="41.531"/>
				<path style="fill:#7DB6F9;" d="M393.248,190.503c-0.913,1.095-13.385,1.217-14.237,0c-0.852-1.217-0.548-10.911,0-11.961
					c0.548-1.049,13.324-1.141,14.237,0C394.16,179.683,394.16,189.408,393.248,190.503z"/>
			</g>
			<g>
				<rect x="458.397" y="99.47" style="fill:#162E4C;" width="1" height="41.531"/>
				<path style="fill:#7DB6F9;" d="M465.939,118.36c-0.913,1.095-13.385,1.217-14.237,0c-0.852-1.217-0.548-10.911,0-11.961
					c0.547-1.049,13.324-1.141,14.237,0C466.851,107.54,466.851,117.265,465.939,118.36z"/>
			</g>
			<g>
				<rect x="549.26" y="64.893" style="fill:#162E4C;" width="1" height="41.531"/>
				<path style="fill:#7DB6F9;" d="M556.802,83.784c-0.913,1.095-13.385,1.217-14.237,0s-0.548-10.911,0-11.961
					s13.324-1.141,14.237,0C557.715,72.963,557.715,82.688,556.802,83.784z"/>
			</g>
			<g>
				<rect x="167.634" y="122.151" style="fill:#162E4C;" width="1" height="71.623"/>
				<path style="fill:#7DB6F9;" d="M175.176,181.859c-0.913,1.095-13.385,1.217-14.237,0c-0.852-1.217-0.548-35.66,0-36.709
					c0.548-1.049,13.324-1.141,14.237,0C176.088,146.291,176.088,180.764,175.176,181.859z"/>
			</g>
			<g>
				<rect x="422.051" y="115.036" style="fill:#162E4C;" width="1" height="71.623"/>
				<path style="fill:#7DB6F9;" d="M429.593,174.744c-0.913,1.095-13.385,1.217-14.237,0c-0.852-1.217-0.548-35.66,0-36.709
					c0.548-1.049,13.324-1.141,14.237,0C430.506,139.176,430.506,173.649,429.593,174.744z"/>
			</g>
			<g>
				<rect x="185.806" y="87.254" style="fill:#162E4C;" width="1" height="89.06"/>
				<path style="fill:#7DB6F9;" d="M193.348,156.946c-0.913,1.095-13.385,1.217-14.237,0c-0.852-1.217-0.548-59.162,0-60.212
					c0.548-1.049,13.324-1.141,14.237,0C194.261,97.876,194.261,155.851,193.348,156.946z"/>
			</g>
			<g>
				<rect x="512.915" y="79.404" style="fill:#162E4C;" width="1" height="80.509"/>
				<path style="fill:#7DB6F9;" d="M520.457,140.546c-0.913,1.095-13.385,1.217-14.237,0c-0.852-1.217-0.547-50.611,0-51.661
					c0.548-1.05,13.324-1.141,14.237,0C521.369,90.026,521.369,139.45,520.457,140.546z"/>
			</g>
			<g>
				<rect x="349.361" y="190.786" style="fill:#162E4C;" width="1" height="76.603"/>
				<path style="fill:#7DB6F9;" d="M356.902,248.02c-0.913,1.095-13.385,1.217-14.237,0c-0.852-1.217-0.547-46.705,0-47.754
					c0.548-1.049,13.324-1.141,14.237,0C357.815,201.407,357.815,246.925,356.902,248.02z"/>
			</g>
			<g>
				<rect x="440.224" y="107.919" style="fill:#162E4C;" width="1" height="50.305"/>
				<path style="fill:#7DB6F9;" d="M447.766,151.048c-0.913,1.095-13.385,1.217-14.237,0c-0.852-1.217-0.548-35.66,0-36.709
					c0.547-1.05,13.324-1.141,14.237,0C448.678,115.48,448.678,149.953,447.766,151.048z"/>
			</g>
			<g>
				<rect x="276.671" y="194.761" style="fill:#162E4C;" width="1" height="50.305"/>
				<path style="fill:#7DB6F9;" d="M284.212,237.891c-0.913,1.095-13.385,1.217-14.237,0c-0.852-1.217-0.548-35.66,0-36.709
					c0.547-1.049,13.324-1.141,14.237,0C285.124,202.322,285.124,236.795,284.212,237.891z"/>
			</g>
			<g>
				<rect x="331.188" y="176.781" style="fill:#162E4C;" width="1" height="50.305"/>
				<path style="fill:#7DB6F9;" d="M338.73,219.91c-0.913,1.095-13.385,1.217-14.237,0c-0.852-1.217-0.547-35.66,0-36.709
					c0.548-1.049,13.324-1.141,14.237,0C339.642,184.342,339.642,218.815,338.73,219.91z"/>
			</g>
		</g>
		<g>
			<g>
				<rect x="150.856" y="254.296" style="fill:#EFAC37;" width="53.624" height="117.772"/>
			</g>
			<g>
				<rect x="222.652" y="285.236" style="fill:#EFAC37;" width="54.518" height="86.832"/>
			</g>
			<g>
				<rect x="295.176" y="340.284" style="fill:#EFAC37;" width="54.518" height="31.784"/>
			</g>
			<g>
				<rect x="440.724" y="302.335" style="fill:#EFAC37;" width="54.518" height="69.733"/>
			</g>
			<g>
				<rect x="512.521" y="218.186" style="fill:#EFAC37;" width="54.518" height="153.882"/>
			</g>
			<g>
				<rect x="368.034" y="258.247" style="fill:#EFAC37;" width="54.518" height="113.822"/>
			</g>
		</g>
		<g>
			<g>
				<path style="fill:#EFAC37;" d="M292.745,93.212c-1.536-4.293-4.376-8.09-8.462-10.552c-13.066-7.871-33.681-4.447-38.521,11.582
					c-4.225,13.993,6.003,28.843,20.594,29.541c8.024,0.384,16.882-2.113,22.385-8.252
					C294.16,109.485,295.392,100.612,292.745,93.212z"/>
				<path style="fill:#E5931C;" d="M287.189,95.119c-1.169-3.27-3.333-6.161-6.445-8.036c-9.951-5.995-25.65-3.387-29.337,8.821
					c-3.218,10.657,4.572,21.966,15.684,22.497c6.111,0.292,12.856-1.609,17.048-6.285
					C288.267,107.512,289.205,100.754,287.189,95.119z"/>
				<path style="fill:#D16D00;" d="M279.649,87.035c-1.743-0.935-3.654-1.625-5.684-2.053l0.207-0.979
					c2.121,0.447,4.123,1.17,5.949,2.15L279.649,87.035z"/>
				<path style="fill:#D16D00;" d="M287.632,107.227l-0.939-0.345c1.344-3.658,1.353-7.884,0.025-11.595
					c-0.731-2.046-1.821-3.848-3.24-5.357l0.729-0.685c1.514,1.609,2.676,3.529,3.453,5.705
					C289.065,98.878,289.054,103.353,287.632,107.227z"/>
				<path style="fill:#D16D00;" d="M268.355,118.931c-0.427,0-0.855-0.01-1.286-0.031c-5.387-0.258-10.314-3.008-13.519-7.545
					c-3.264-4.621-4.219-10.306-2.621-15.596c2.121-7.025,8.307-11.586,16.546-12.203l0.074,0.997
					c-7.811,0.584-13.665,4.881-15.663,11.495c-1.508,4.994-0.604,10.363,2.48,14.73c3.025,4.284,7.673,6.88,12.749,7.123
					c6.718,0.319,12.93-1.967,16.652-6.119c0.71-0.793,1.338-1.67,1.866-2.607l0.871,0.491c-0.563,0.999-1.234,1.936-1.993,2.783
					C280.833,116.555,274.863,118.931,268.355,118.931z"/>
				<g>
					<path style="fill:#FFFFFF;" d="M275.567,104.414c0,1.602-0.462,2.885-1.386,3.85c-0.924,0.965-2.043,1.602-3.357,1.91v1.971
						c0,0.719-0.066,1.221-0.2,1.509c-0.134,0.287-0.329,0.482-0.586,0.585c-0.257,0.103-0.6,0.154-1.032,0.154
						c-0.431,0-0.775-0.051-1.032-0.154c-0.257-0.103-0.437-0.288-0.539-0.554c-0.144-0.349-0.215-0.873-0.215-1.571v-1.91
						c-0.842-0.185-1.602-0.493-2.279-0.924c-0.678-0.431-1.15-0.811-1.417-1.139l-0.4-0.524c-0.431-0.554-0.647-1.037-0.647-1.448
						c0-0.41,0.349-0.954,1.047-1.632c0.411-0.39,0.848-0.585,1.309-0.585c0.462,0,1.103,0.411,1.925,1.232
						c0.637,0.781,1.355,1.171,2.157,1.171c1.519,0,2.279-0.626,2.279-1.879c0-0.451-0.287-0.801-0.862-1.047
						c-0.575-0.246-1.274-0.467-2.095-0.662c-0.821-0.195-1.643-0.457-2.464-0.785c-0.821-0.328-1.52-0.893-2.095-1.694
						c-0.575-0.801-0.862-1.817-0.862-3.049s0.39-2.341,1.171-3.327c0.78-0.986,1.858-1.622,3.234-1.91v-1.725
						c0-0.698,0.061-1.201,0.185-1.509c0.205-0.493,0.75-0.739,1.632-0.739c0.554,0,0.97,0.118,1.248,0.354
						c0.277,0.236,0.436,0.488,0.477,0.755c0.041,0.267,0.061,0.657,0.061,1.17v1.725c0.575,0.123,1.099,0.298,1.571,0.524
						c0.472,0.226,0.801,0.411,0.986,0.554l0.277,0.247l0.123,0.092c0.513,0.472,0.77,0.862,0.77,1.17
						c0,0.308-0.242,0.822-0.723,1.54c-0.482,0.719-1.011,1.078-1.587,1.078c-0.37,0-0.683-0.092-0.939-0.277
						c-0.257-0.185-0.458-0.339-0.601-0.462c-0.145-0.123-0.278-0.225-0.401-0.308c-0.349-0.226-0.791-0.339-1.324-0.339
						c-0.534,0-0.975,0.129-1.325,0.385c-0.349,0.257-0.523,0.611-0.523,1.062c0,0.452,0.21,0.817,0.631,1.094
						c0.42,0.277,0.939,0.462,1.555,0.554c0.616,0.092,1.293,0.246,2.033,0.462c0.739,0.216,1.417,0.468,2.033,0.755
						c0.616,0.288,1.134,0.796,1.555,1.525C275.356,102.417,275.567,103.325,275.567,104.414z"/>
				</g>
				<rect x="268.944" y="64.737" style="fill:#D16D00;" width="1" height="8.102"/>
				<rect x="263.455" y="68.788" style="fill:#D16D00;" width="1" height="8.102"/>
				<rect x="274.342" y="69.97" style="fill:#D16D00;" width="1" height="5.739"/>
			</g>
			<g>
				<path style="fill:#EFAC37;" d="M345.736,261.871c-1.536-4.293-4.376-8.09-8.462-10.552
					c-13.066-7.871-33.681-4.447-38.521,11.582c-4.225,13.993,6.003,28.843,20.594,29.541c8.024,0.384,16.882-2.113,22.385-8.252
					C347.151,278.145,348.383,269.271,345.736,261.871z"/>
				<path style="fill:#E5931C;" d="M340.181,263.778c-1.169-3.27-3.333-6.161-6.445-8.036c-9.951-5.995-25.651-3.387-29.337,8.821
					c-3.218,10.657,4.572,21.966,15.684,22.497c6.111,0.292,12.857-1.609,17.048-6.285
					C341.258,276.172,342.196,269.414,340.181,263.778z"/>
				<path style="fill:#D16D00;" d="M332.64,255.694c-1.743-0.935-3.654-1.626-5.684-2.053l0.207-0.979
					c2.121,0.447,4.123,1.17,5.949,2.15L332.64,255.694z"/>
				<path style="fill:#D16D00;" d="M340.624,275.886l-0.939-0.345c1.344-3.658,1.353-7.884,0.025-11.595
					c-0.731-2.046-1.821-3.849-3.239-5.357l0.728-0.685c1.513,1.609,2.674,3.529,3.452,5.705
					C342.056,267.538,342.046,272.013,340.624,275.886z"/>
				<path style="fill:#D16D00;" d="M321.346,287.591c-0.427,0-0.855-0.01-1.286-0.031c-5.388-0.258-10.314-3.008-13.518-7.545
					c-3.264-4.621-4.219-10.305-2.621-15.596c2.121-7.025,8.308-11.586,16.547-12.203l0.074,0.997
					c-7.811,0.584-13.666,4.881-15.664,11.495c-1.508,4.994-0.604,10.362,2.48,14.729c3.025,4.284,7.673,6.881,12.749,7.124
					c6.71,0.32,12.929-1.967,16.652-6.119c0.709-0.792,1.338-1.669,1.866-2.607l0.871,0.491c-0.564,1-1.235,1.937-1.993,2.783
					C333.824,285.214,327.854,287.591,321.346,287.591z"/>
				<g>
					<path style="fill:#FFFFFF;" d="M328.559,273.073c0,1.602-0.462,2.885-1.386,3.85c-0.924,0.966-2.043,1.602-3.357,1.91v1.971
						c0,0.719-0.067,1.221-0.2,1.509c-0.134,0.287-0.329,0.482-0.586,0.585s-0.6,0.154-1.032,0.154
						c-0.431,0-0.775-0.051-1.032-0.154c-0.257-0.103-0.437-0.288-0.539-0.554c-0.144-0.349-0.215-0.873-0.215-1.571v-1.909
						c-0.842-0.185-1.602-0.493-2.279-0.924c-0.678-0.431-1.15-0.811-1.417-1.139l-0.4-0.524c-0.431-0.554-0.647-1.037-0.647-1.448
						c0-0.41,0.349-0.954,1.047-1.632c0.411-0.39,0.848-0.585,1.309-0.585c0.462,0,1.103,0.411,1.925,1.232
						c0.637,0.781,1.356,1.171,2.157,1.171c1.519,0,2.279-0.626,2.279-1.879c0-0.451-0.287-0.801-0.862-1.047
						c-0.575-0.246-1.274-0.467-2.095-0.662c-0.821-0.195-1.643-0.457-2.464-0.785c-0.821-0.328-1.52-0.893-2.095-1.694
						c-0.575-0.801-0.863-1.817-0.863-3.049c0-1.232,0.39-2.341,1.171-3.327c0.78-0.986,1.858-1.622,3.234-1.91v-1.725
						c0-0.697,0.061-1.201,0.185-1.509c0.205-0.493,0.75-0.739,1.632-0.739c0.554,0,0.97,0.118,1.248,0.354
						c0.277,0.236,0.436,0.488,0.477,0.755c0.041,0.267,0.061,0.657,0.061,1.17v1.725c0.575,0.124,1.099,0.298,1.571,0.524
						c0.472,0.226,0.801,0.411,0.986,0.554l0.277,0.246l0.124,0.092c0.513,0.472,0.77,0.863,0.77,1.17
						c0,0.308-0.242,0.822-0.723,1.54c-0.482,0.719-1.011,1.078-1.587,1.078c-0.37,0-0.683-0.092-0.939-0.277
						c-0.257-0.185-0.458-0.339-0.601-0.462c-0.145-0.123-0.278-0.225-0.401-0.308c-0.349-0.226-0.791-0.339-1.324-0.339
						c-0.534,0-0.976,0.129-1.325,0.385c-0.349,0.257-0.523,0.611-0.523,1.062c0,0.452,0.21,0.816,0.631,1.094
						c0.42,0.277,0.939,0.462,1.555,0.554c0.616,0.092,1.293,0.246,2.032,0.462c0.739,0.216,1.417,0.468,2.033,0.755
						c0.616,0.288,1.134,0.796,1.555,1.525C328.348,271.077,328.559,271.985,328.559,273.073z"/>
				</g>
				<rect x="321.935" y="233.397" style="fill:#D16D00;" width="1" height="8.102"/>
				<rect x="316.446" y="237.448" style="fill:#D16D00;" width="1" height="8.102"/>
				<rect x="327.334" y="238.63" style="fill:#D16D00;" width="1" height="5.739"/>
			</g>
			<g>
				<path style="fill:#EFAC37;" d="M491.065,197.687c-1.536-4.293-4.377-8.09-8.462-10.552
					c-13.066-7.871-33.681-4.447-38.521,11.582c-4.225,13.993,6.003,28.843,20.594,29.541c8.024,0.384,16.882-2.113,22.385-8.252
					C492.48,213.96,493.712,205.087,491.065,197.687z"/>
				<path style="fill:#E5931C;" d="M485.509,199.594c-1.169-3.27-3.333-6.161-6.445-8.036c-9.951-5.995-25.65-3.387-29.337,8.821
					c-3.218,10.657,4.572,21.966,15.684,22.497c6.111,0.292,12.857-1.609,17.048-6.285
					C486.587,211.987,487.525,205.23,485.509,199.594z"/>
				<path style="fill:#D16D00;" d="M477.969,191.51c-1.743-0.935-3.655-1.626-5.683-2.052l0.205-0.979
					c2.121,0.446,4.123,1.169,5.95,2.15L477.969,191.51z"/>
				<path style="fill:#D16D00;" d="M485.952,211.702l-0.939-0.345c1.344-3.658,1.354-7.884,0.026-11.594
					c-0.732-2.046-1.823-3.849-3.24-5.358l0.728-0.685c1.513,1.609,2.674,3.529,3.453,5.706
					C487.385,203.352,487.375,207.827,485.952,211.702z"/>
				<path style="fill:#D16D00;" d="M466.674,223.406c-0.427,0-0.855-0.01-1.286-0.031c-5.387-0.258-10.314-3.007-13.518-7.545
					c-3.264-4.621-4.219-10.306-2.621-15.597c2.12-7.025,8.306-11.586,16.546-12.203l0.074,0.997
					c-7.811,0.584-13.666,4.881-15.663,11.495c-1.508,4.994-0.604,10.363,2.48,14.731c3.025,4.284,7.672,6.879,12.748,7.122
					c6.711,0.321,12.929-1.967,16.652-6.119c0.708-0.789,1.336-1.666,1.867-2.607l0.871,0.492c-0.567,1.003-1.238,1.939-1.994,2.783
					C479.152,221.03,473.182,223.406,466.674,223.406z"/>
				<g>
					<path style="fill:#FFFFFF;" d="M473.887,208.889c0,1.602-0.462,2.885-1.386,3.85c-0.924,0.965-2.043,1.602-3.357,1.91v1.971
						c0,0.719-0.067,1.221-0.2,1.509c-0.134,0.287-0.329,0.482-0.586,0.585s-0.6,0.154-1.032,0.154
						c-0.431,0-0.775-0.051-1.032-0.154c-0.257-0.103-0.437-0.288-0.539-0.554c-0.144-0.349-0.215-0.873-0.215-1.571v-1.91
						c-0.842-0.185-1.602-0.493-2.279-0.924c-0.678-0.431-1.15-0.811-1.417-1.139l-0.4-0.524c-0.431-0.554-0.647-1.037-0.647-1.448
						c0-0.41,0.349-0.954,1.047-1.632c0.411-0.39,0.848-0.585,1.309-0.585c0.462,0,1.103,0.411,1.925,1.232
						c0.637,0.781,1.356,1.171,2.157,1.171c1.519,0,2.279-0.626,2.279-1.879c0-0.451-0.287-0.801-0.862-1.047
						c-0.575-0.247-1.274-0.467-2.095-0.663c-0.821-0.195-1.643-0.457-2.464-0.785c-0.821-0.328-1.52-0.893-2.095-1.694
						c-0.575-0.801-0.863-1.817-0.863-3.049s0.39-2.341,1.171-3.327c0.78-0.986,1.858-1.622,3.234-1.91v-1.725
						c0-0.698,0.061-1.201,0.185-1.509c0.205-0.492,0.75-0.739,1.632-0.739c0.554,0,0.97,0.118,1.248,0.354
						c0.277,0.236,0.436,0.488,0.477,0.755c0.041,0.267,0.061,0.657,0.061,1.17v1.725c0.575,0.123,1.099,0.298,1.571,0.524
						c0.472,0.226,0.801,0.411,0.986,0.554l0.277,0.247l0.124,0.092c0.513,0.473,0.77,0.863,0.77,1.17
						c0,0.308-0.242,0.822-0.723,1.54c-0.483,0.719-1.011,1.078-1.587,1.078c-0.37,0-0.683-0.092-0.939-0.277
						c-0.257-0.185-0.458-0.339-0.601-0.462c-0.145-0.123-0.278-0.225-0.401-0.308c-0.349-0.226-0.791-0.339-1.324-0.339
						c-0.534,0-0.976,0.129-1.325,0.385c-0.349,0.257-0.523,0.611-0.523,1.062c0,0.452,0.21,0.817,0.631,1.094
						c0.42,0.277,0.939,0.462,1.555,0.554c0.616,0.092,1.293,0.246,2.032,0.462c0.739,0.216,1.417,0.468,2.033,0.755
						c0.616,0.288,1.134,0.796,1.555,1.524C473.676,206.892,473.887,207.801,473.887,208.889z"/>
				</g>
				<rect x="467.264" y="169.213" style="fill:#D16D00;" width="1" height="8.102"/>
				<rect x="461.775" y="173.264" style="fill:#D16D00;" width="1" height="8.102"/>
				<rect x="472.662" y="174.445" style="fill:#D16D00;" width="1" height="5.739"/>
			</g>
		</g>
		<g>
			<g>
				<polygon style="fill:#162E4C;" points="26.803,404.153 23.975,401.325 77.566,347.734 148.888,347.734 192.481,304.141 
					266.838,304.141 284.954,322.256 320.37,322.256 364.463,278.162 431.892,278.162 461.597,248.457 513.801,248.457 
					571.225,191.033 615.864,191.033 657.846,149.051 660.674,151.879 617.52,195.033 572.881,195.033 515.458,252.457 
					463.254,252.457 433.548,282.162 366.12,282.162 322.026,326.256 283.297,326.256 265.182,308.141 194.137,308.141 
					150.544,351.734 79.222,351.734 				"/>
				<polygon style="fill:#162E4C;" points="661.26,170.168 657.26,170.168 657.26,152.465 639.709,152.465 639.709,148.465 
					661.26,148.465 				"/>
			</g>
			<g>
				<g>
					<path style="fill:#E8615B;" d="M89.819,346.544c-0.658-1.839-1.875-3.466-3.625-4.52c-5.598-3.372-14.429-1.905-16.502,4.962
						c-1.81,5.995,2.572,12.356,8.822,12.655c3.437,0.164,7.232-0.905,9.59-3.535C90.425,353.515,90.953,349.714,89.819,346.544z"/>
					<path style="fill:#FFFFFF;" d="M84.231,348.462c-0.289-0.81-0.825-1.525-1.596-1.99c-2.464-1.484-6.351-0.838-7.263,2.184
						c-0.797,2.638,1.132,5.438,3.883,5.57c1.513,0.072,3.183-0.398,4.221-1.556C84.497,351.53,84.73,349.857,84.231,348.462z"/>
				</g>
				<g>
					<path style="fill:#E8615B;" d="M161.408,346.544c-0.658-1.839-1.875-3.466-3.625-4.52c-5.598-3.372-14.429-1.905-16.502,4.962
						c-1.81,5.995,2.572,12.356,8.822,12.655c3.437,0.164,7.232-0.905,9.59-3.535C162.014,353.515,162.542,349.714,161.408,346.544z
						"/>
					<path style="fill:#FFFFFF;" d="M155.819,348.462c-0.29-0.81-0.825-1.525-1.596-1.99c-2.464-1.484-6.351-0.838-7.263,2.184
						c-0.797,2.638,1.132,5.438,3.883,5.57c1.513,0.072,3.183-0.398,4.221-1.556C156.086,351.53,156.318,349.857,155.819,348.462z"
						/>
				</g>
				<g>
					<path style="fill:#E8615B;" d="M202.973,303.172c-0.658-1.839-1.875-3.466-3.625-4.52c-5.598-3.372-14.429-1.905-16.502,4.962
						c-1.81,5.994,2.572,12.356,8.822,12.655c3.437,0.164,7.232-0.905,9.59-3.535C203.579,310.143,204.107,306.342,202.973,303.172z
						"/>
					<path style="fill:#FFFFFF;" d="M197.384,305.09c-0.29-0.81-0.825-1.525-1.596-1.99c-2.464-1.484-6.351-0.839-7.263,2.184
						c-0.797,2.638,1.132,5.438,3.883,5.57c1.513,0.072,3.183-0.398,4.221-1.556C197.651,308.158,197.883,306.485,197.384,305.09z"
						/>
				</g>
				<g>
					<path style="fill:#E8615B;" d="M276.872,303.172c-0.658-1.839-1.875-3.466-3.625-4.52c-5.598-3.372-14.429-1.905-16.502,4.962
						c-1.81,5.994,2.572,12.356,8.823,12.655c3.437,0.164,7.232-0.905,9.59-3.535C277.479,310.143,278.006,306.342,276.872,303.172z
						"/>
					<path style="fill:#FFFFFF;" d="M271.284,305.09c-0.29-0.81-0.825-1.525-1.596-1.99c-2.464-1.484-6.351-0.839-7.263,2.184
						c-0.797,2.638,1.132,5.438,3.883,5.57c1.513,0.072,3.183-0.398,4.221-1.556C271.551,308.158,271.783,306.485,271.284,305.09z"
						/>
				</g>
				<g>
					<path style="fill:#E8615B;" d="M294.325,320.624c-0.658-1.839-1.875-3.466-3.625-4.52c-5.598-3.372-14.429-1.905-16.502,4.962
						c-1.81,5.994,2.572,12.356,8.822,12.655c3.437,0.164,7.232-0.905,9.59-3.535C294.931,327.595,295.459,323.794,294.325,320.624z
						"/>
					<path style="fill:#FFFFFF;" d="M288.736,322.543c-0.289-0.81-0.825-1.526-1.596-1.99c-2.464-1.484-6.351-0.839-7.263,2.184
						c-0.797,2.638,1.132,5.438,3.883,5.57c1.513,0.072,3.183-0.398,4.221-1.556C289.003,325.611,289.235,323.938,288.736,322.543z"
						/>
				</g>
				<g>
					<path style="fill:#E8615B;" d="M331.197,320.624c-0.658-1.839-1.875-3.466-3.625-4.52c-5.598-3.372-14.429-1.905-16.502,4.962
						c-1.81,5.994,2.572,12.356,8.823,12.655c3.437,0.164,7.232-0.905,9.59-3.535C331.803,327.595,332.331,323.794,331.197,320.624z
						"/>
					<path style="fill:#FFFFFF;" d="M325.608,322.543c-0.29-0.81-0.825-1.526-1.596-1.99c-2.464-1.484-6.351-0.839-7.263,2.184
						c-0.797,2.638,1.132,5.438,3.883,5.57c1.513,0.072,3.183-0.398,4.221-1.556C325.875,325.611,326.107,323.938,325.608,322.543z"
						/>
				</g>
				<g>
					<path style="fill:#E8615B;" d="M375.046,277.546c-0.658-1.839-1.875-3.466-3.625-4.52c-5.598-3.372-14.429-1.905-16.502,4.962
						c-1.81,5.994,2.572,12.356,8.822,12.655c3.437,0.164,7.232-0.905,9.59-3.535C375.652,284.517,376.179,280.716,375.046,277.546z
						"/>
					<path style="fill:#FFFFFF;" d="M369.457,279.465c-0.289-0.81-0.825-1.525-1.596-1.99c-2.464-1.484-6.351-0.839-7.263,2.184
						c-0.797,2.638,1.132,5.438,3.883,5.57c1.513,0.072,3.183-0.398,4.221-1.556C369.724,282.533,369.956,280.86,369.457,279.465z"
						/>
				</g>
				<g>
					<path style="fill:#E8615B;" d="M444.551,277.546c-0.658-1.839-1.875-3.466-3.625-4.52c-5.598-3.372-14.429-1.905-16.502,4.962
						c-1.81,5.994,2.572,12.356,8.822,12.655c3.437,0.164,7.232-0.905,9.59-3.535C445.158,284.517,445.685,280.716,444.551,277.546z
						"/>
					<path style="fill:#FFFFFF;" d="M438.963,279.465c-0.29-0.81-0.825-1.525-1.596-1.99c-2.464-1.484-6.351-0.839-7.263,2.184
						c-0.797,2.638,1.132,5.438,3.883,5.57c1.513,0.072,3.183-0.398,4.221-1.556C439.229,282.533,439.462,280.86,438.963,279.465z"
						/>
				</g>
				<g>
					<path style="fill:#E8615B;" d="M473.514,246.831c-0.658-1.839-1.875-3.466-3.625-4.52c-5.598-3.372-14.429-1.905-16.502,4.962
						c-1.81,5.994,2.572,12.356,8.822,12.655c3.437,0.164,7.232-0.905,9.59-3.535C474.121,253.802,474.648,250.001,473.514,246.831z
						"/>
					<path style="fill:#FFFFFF;" d="M467.926,248.749c-0.289-0.809-0.825-1.525-1.596-1.99c-2.464-1.484-6.35-0.839-7.263,2.184
						c-0.797,2.638,1.132,5.438,3.883,5.57c1.513,0.072,3.183-0.398,4.221-1.556C468.193,251.817,468.425,250.144,467.926,248.749z"
						/>
				</g>
				<g>
					<path style="fill:#E8615B;" d="M524.564,246.831c-0.658-1.839-1.875-3.466-3.625-4.52c-5.598-3.372-14.429-1.905-16.502,4.962
						c-1.81,5.994,2.572,12.356,8.823,12.655c3.437,0.164,7.232-0.905,9.59-3.535C525.171,253.802,525.698,250.001,524.564,246.831z
						"/>
					<path style="fill:#FFFFFF;" d="M518.976,248.749c-0.29-0.809-0.825-1.525-1.596-1.99c-2.464-1.484-6.351-0.839-7.263,2.184
						c-0.797,2.638,1.132,5.438,3.883,5.57c1.513,0.072,3.183-0.398,4.221-1.556C519.243,251.817,519.475,250.144,518.976,248.749z"
						/>
				</g>
				<g>
					<path style="fill:#E8615B;" d="M582.376,189.964c-0.658-1.839-1.875-3.466-3.625-4.52c-5.598-3.372-14.429-1.905-16.502,4.962
						c-1.81,5.994,2.572,12.356,8.822,12.655c3.437,0.165,7.232-0.905,9.59-3.535C582.982,196.935,583.51,193.134,582.376,189.964z"
						/>
					<path style="fill:#FFFFFF;" d="M576.787,191.882c-0.29-0.809-0.825-1.525-1.596-1.99c-2.464-1.484-6.351-0.839-7.263,2.184
						c-0.797,2.638,1.132,5.438,3.883,5.57c1.513,0.072,3.183-0.398,4.221-1.556C577.054,194.951,577.286,193.278,576.787,191.882z"
						/>
				</g>
				<g>
					<path style="fill:#E8615B;" d="M626.091,189.964c-0.658-1.839-1.875-3.466-3.625-4.52c-5.598-3.372-14.429-1.905-16.502,4.962
						c-1.81,5.994,2.572,12.356,8.823,12.655c3.437,0.165,7.232-0.905,9.59-3.535C626.697,196.935,627.224,193.134,626.091,189.964z
						"/>
					<path style="fill:#FFFFFF;" d="M620.502,191.882c-0.29-0.809-0.825-1.525-1.596-1.99c-2.464-1.484-6.351-0.839-7.263,2.184
						c-0.797,2.638,1.132,5.438,3.883,5.57c1.513,0.072,3.183-0.398,4.221-1.556C620.769,194.951,621.001,193.278,620.502,191.882z"
						/>
				</g>
			</g>
		</g>
		<g>
			<path style="fill:#162E4C;" d="M130.374,434.59c-1.093,5.43-1.548,10.75-1.163,15.922h48.987
				c0.959-4.185,0.535-6.533-10.262-9.614c-6.246-1.634-14.237-6.717-14.237-6.717L130.374,434.59z"/>
			<path style="fill:#162E4C;" d="M63.307,434.59c-1.093,5.43-1.548,10.75-1.163,15.922l42.962,0c0,0,0-6.941-8.12-9.614
				c-7.181-2.499-10.353-6.717-10.353-6.717L63.307,434.59z"/>
			<path style="fill:#7DB6F9;" d="M61.412,235.001c-13.523,38.103-2.782,190.107-0.396,199.641c4.215,2.55,14.109,2.424,28.879,0
				c2.453-69.145,3.298-172.727,3.298-172.727l0.943-0.019l33.76,172.746c3.395,2.768,13.867,2.207,27.835,0
				c-6.853-83.177-14.604-161.387-29.29-201.245L61.412,235.001z"/>
			<path style="fill:#EFAB8B;" d="M82.625,118.483l1.01-22.28l9.694-14.682l12.925-10.062l5.756,0.924c0,0,4.847,9.959,5.352,14.887
				c0.505,4.928,3.13,6.982,3.13,8.419c0,1.437-3.635,3.08-3.635,3.08s2.724,13.979-2.93,15.621
				c-3.775,0.544-7.232,0.699-10.398,0.498l-0.202,11.91L82.625,118.483z"/>
			<path style="fill:#162E4C;" d="M83.634,105.239C70.137,92.37,69.209,79.099,76.162,76.491
				C74.56,68.89,81.23,64.029,91.661,60.414c6.258-2.169,13.458-2.763,17.474-1.311c4.015,1.452,8.011,12.892-2.175,17.08
				c2.247,4.979,2.979,7.88,3.13,14.631c0,0-0.076,2.824-1.868,2.31c-0.872-7.516-7.27-9.857-8.583-5.904
				c-0.683,3.296,0.101,6.52-1.195,10.01C95.419,104.48,89.815,106.519,83.634,105.239z"/>
			<path style="fill:#EFAB8B;" d="M181.92,132.564c2.732-4.511,11.424-2.715,8.97,4.482c0,0-13.377,45.497-21.499,53.868
				c-7.837,9.199-22.745,5.186-18.279-11.317C152.036,173.462,181.92,132.564,181.92,132.564z"/>
			<path style="fill:#FFFFFF;" d="M59.567,238.638l-1.071,5.01c12.448,6.941,45.53,9.595,70.96-1.656l-0.848-4.105L59.567,238.638z"
				/>
			<g>
				<path style="fill:#EFAB8B;" d="M86.579,209.242c3.665,3.276-1.206,15.368-7.422,11.94c0,0-39.706-19.647-45.916-28.612
					c-7.035-8.823-0.421-22.296,14.057-15.534C52.823,178.855,86.579,209.242,86.579,209.242z"/>
				<path style="fill:#D9EBFF;" d="M61.476,128.541c10.793-14.683,27.371-11.89,26.412,8.807
					c-0.909,9.216-29.129,52.027-36.534,58.307c-7.773,9.254-26.304,2.042-21.522-13.607
					C30.713,175.906,61.476,128.541,61.476,128.541z"/>
			</g>
			<path style="fill:#2F4A7F;" d="M59.471,239.09c4.641,5.826,62.458,5.869,69.562-0.749c6.603-5.398-0.849-14.716,0.156-30.418
				c0.612-9.567,1.628-19.383,3.31-26.202c4.443-18.008,4.558-47.047-0.087-51.796c-2.646-3.492-14.125-9.436-28.944-11.599
				c-6.976,1.595-14.381,1.331-20.843-0.156c-3.036,0.422-5.95,0.564-9.015,1.454c-30.499,7.518-13.611,71.398-12.197,85.844
				C62.826,219.914,54.83,233.263,59.471,239.09z"/>
			<path style="fill:#EFAB8B;" d="M191.171,136.017c6.281-3.947,9.477-24.618,2.715-27.748l0.061,2.86
				c-2.312,3.603-6.197,9.347-6.898,8.421c-1.01-1.335-1.079-8.656-1.079-8.656c-0.101-1.848-3.054-2.285-3.332,0
				c0,0-1.818,9.241-1.717,11.397s1.01,10.37,1.01,10.37C182.239,136.402,183.916,140.092,191.171,136.017z"/>
			<path style="fill:#FFFFFF;" d="M109.625,153.281c-10.362-15-0.196-33.949,18.849-26.58c12.237,5.86,36.67,45.308,40.234,54.419
				c6.229,10.392-3.905,25.114-17.042,15.622C146.2,193.978,109.625,153.281,109.625,153.281z"/>
			<path style="fill:#FFFFFF;" d="M82.901,113.042c1.071,2.903,10.373,2.835,20.626,1.848l0.702,3.551
				c-9.26,4.899-21.492,3.677-22.784-0.118L82.901,113.042z"/>
			<path style="fill:#162E4C;" d="M109.871,86.584c0,0,2.52,14.845,4.127,15.253c1.606,0.408,1.343-2.957,2.858-3.066
				c0,0,3.79,14.498-1.876,15.723c-11.222,1.9-4.584-11.874-6.757-21.37c-0.579-5.303-0.872-7.981-0.872-7.981L109.871,86.584z"/>
			<rect x="103.026" y="109.867" style="fill:#D88260;" width="1" height="5.023"/>
			<path style="fill:#3E7EDB;" d="M105.9,266.593c-5.034-0.061-9.31-1.456-12.398-4.037c-5.813,4.788-18.827,4.678-23.625-0.313
				l0.721-0.693c4.501,4.681,17.366,4.667,22.569-0.024l0.332-0.3l0.335,0.297c2.93,2.602,7.105,4.01,12.078,4.071L105.9,266.593z"
				/>
			<path style="fill:#DAE9F7;" d="M160.046,200.279c-5.314,0-9.725-3.969-9.935-4.161l0.674-0.738
				c0.056,0.05,5.551,4.999,11.353,3.662c6.758-1.054,8.161-9.471,8.175-9.556l0.988,0.155c-0.015,0.092-1.525,9.222-8.974,10.383
				C161.556,200.201,160.792,200.279,160.046,200.279z"/>
			
				<rect x="154.443" y="149.07" transform="matrix(0.8346 -0.5509 0.5509 0.8346 -61.1376 111.4018)" style="fill:#DAE9F7;" width="0.999" height="16.879"/>
			<path style="fill:#D88260;" d="M185.303,120.779c-0.49,0-0.835-0.077-0.867-0.084l0.223-0.975
				c0.013,0.003,1.384,0.298,2.364-0.473l0.619,0.785C186.866,120.644,185.956,120.779,185.303,120.779z"/>
			<path style="fill:#D88260;" d="M182.499,135.562c-0.845-1.151-1.055-2.771-1.063-2.84l0.992-0.125
				c0.002,0.014,0.189,1.435,0.878,2.373L182.499,135.562z"/>
		</g>
		<g>
			<path style="fill:#EFAB8B;" d="M566.632,113.013c0,0-4.483-6.182-9.776-7.818c-1.205-0.57-13.179-2.146-17.116,2.682
				c-1.741,2.561-0.683,6.523-0.411,8.36c0.475,2.551,1.499,5.53,4.602,4.259c0.181,2.389,5.191,2.455,5.046,0.546
				c0.164,2.16,4.826,1.935,4.663-0.223c0.7,2.293,4.794,1.888,4.503-1.083l-0.063-6.717L566.632,113.013z"/>
			<path style="fill:#D88260;" d="M543.445,120.61c-0.818-3.519-1.143-6.616-0.991-9.468l0.998,0.053
				c-0.146,2.757,0.171,5.763,0.968,9.189L543.445,120.61z"/>
			<path style="fill:#D88260;" d="M548.489,121.151c-0.892-4.023-1.244-7.421-1.078-10.388l0.998,0.056
				c-0.16,2.875,0.185,6.184,1.057,10.116L548.489,121.151z"/>
			<path style="fill:#D88260;" d="M553.145,120.888c-0.55-3.954-0.729-7.388-0.55-10.499l0.998,0.058
				c-0.176,3.045,0.001,6.416,0.542,10.304L553.145,120.888z"/>
		</g>
		<rect x="19.451" y="450.013" style="fill:#162E4C;" width="711.099" height="1"/>
	</g>
</g>
</svg>
