<?xml version="1.0" encoding="iso-8859-1"?>
<!DOCTYPE svg PUBLIC "-//W3C//DTD SVG 1.1//EN" "http://www.w3.org/Graphics/SVG/1.1/DTD/svg11.dtd">
<svg fill="#fff" version="1.1" id="Capa_1" xmlns="http://www.w3.org/2000/svg" xmlns:xlink="http://www.w3.org/1999/xlink" 
	 width="800px" height="800px" viewBox="0 0 35.426 35.426"
	 xml:space="preserve">
<g>
	<path d="M27.012,2.109l-0.544,0.544l-1.312-1.311l-1.205,1.205l-1.279-1.28l-0.874,0.874V1.442H0v32.716h22.798V23.151
		l12.628-12.628L27.012,2.109z M25.156,2.757l0.604,0.604L9.914,19.209l7.102,7.103l-0.545,0.545L8.765,19.15L25.156,2.757z
		 M22.672,2.682l0.573,0.573L7.351,19.15l7.134,7.134l-0.498,0.498l-7.706-7.707L22.672,2.682z M11.173,32.932
		c-0.707,0-1.28-0.571-1.28-1.277c0-0.707,0.573-1.279,1.28-1.279s1.28,0.572,1.28,1.279C12.453,32.359,11.88,32.932,11.173,32.932z
		 M20.798,28.769H2V3.443h18.497L4.866,19.074l9.12,9.121l1.205-1.205l1.279,1.279l1.252-1.252l0.604,0.605l2.471-2.473
		L20.798,28.769L20.798,28.769z M25.551,17.748c-1.592,1.592-4.171,1.592-5.763,0c-1.593-1.591-1.593-4.17,0-5.763
		c1.591-1.592,4.171-1.591,5.763,0C27.143,13.578,27.143,16.155,25.551,17.748z M21.641,13.394l0.99,0.989l0.154-0.143
		c0.523-0.47,0.945-0.718,1.266-0.747c0.32-0.028,0.674,0.152,1.062,0.54c0.418,0.417,0.617,0.806,0.596,1.164
		c-0.021,0.359-0.27,0.774-0.741,1.247l-0.135,0.139l0.442,0.443l-0.449,0.45l-0.443-0.443l-0.129,0.125
		c-0.471,0.47-0.882,0.722-1.234,0.751c-0.354,0.03-0.729-0.154-1.127-0.554l-0.133-0.138l0.667-0.667l0.069,0.069
		c0.244,0.243,0.439,0.361,0.589,0.354c0.147-0.006,0.356-0.145,0.626-0.414l0.102-0.097l-1.07-1.071
		c-0.525,0.525-0.963,0.808-1.307,0.849c-0.344,0.04-0.726-0.149-1.144-0.566c-0.404-0.405-0.585-0.779-0.542-1.121
		c0.044-0.342,0.328-0.776,0.852-1.3l-0.385-0.385l0.45-0.45l0.384,0.384c0.501-0.5,0.914-0.771,1.242-0.813
		c0.327-0.041,0.686,0.133,1.072,0.521l0.091,0.09l-0.646,0.646l-0.074-0.069c-0.293-0.293-0.623-0.257-0.988,0.11L21.641,13.394z
		 M21.188,13.84l-0.093,0.099c-0.396,0.396-0.437,0.751-0.125,1.064c0.328,0.328,0.69,0.295,1.083-0.099
		c0.003-0.004,0.039-0.035,0.104-0.094L21.188,13.84z M24.259,16.011l0.097-0.096c0.431-0.429,0.459-0.828,0.09-1.196
		c-0.199-0.202-0.381-0.287-0.541-0.255c-0.158,0.032-0.39,0.198-0.69,0.5L24.259,16.011z"/>
</g>
</svg>